<?xml version="1.0" encoding="utf-8" standalone="no"?>
<!DOCTYPE svg PUBLIC "-//W3C//DTD SVG 1.1//EN"
  "http://www.w3.org/Graphics/SVG/1.1/DTD/svg11.dtd">
<!-- Created with matplotlib (https://matplotlib.org/) -->
<svg height="720pt" version="1.1" viewBox="0 0 1080 720" width="1080pt" xmlns="http://www.w3.org/2000/svg" xmlns:xlink="http://www.w3.org/1999/xlink">
 <defs>
  <style type="text/css">
*{stroke-linecap:butt;stroke-linejoin:round;}
  </style>
 </defs>
 <g id="figure_1">
  <g id="patch_1">
   <path d="M 0 720 
L 1080 720 
L 1080 0 
L 0 0 
z
" style="fill:#ffffff;"/>
  </g>
  <g id="axes_1">
   <g id="patch_2">
    <path d="M 269.426563 692.521875 
L 1069.2 692.521875 
L 1069.2 10.8 
L 269.426563 10.8 
z
" style="fill:#ffffff;"/>
   </g>
   <g id="patch_3">
    <path clip-path="url(#p254bbe694c)" d="M 269.426563 661.534517 
L 529.619373 661.534517 
L 529.619373 632.022748 
L 269.426563 632.022748 
z
" style="fill:#1f77b4;"/>
   </g>
   <g id="patch_4">
    <path clip-path="url(#p254bbe694c)" d="M 269.426563 624.644805 
L 607.955002 624.644805 
L 607.955002 595.133036 
L 269.426563 595.133036 
z
" style="fill:#1f77b4;"/>
   </g>
   <g id="patch_5">
    <path clip-path="url(#p254bbe694c)" d="M 269.426563 587.755093 
L 801.355731 587.755093 
L 801.355731 558.243324 
L 269.426563 558.243324 
z
" style="fill:#1f77b4;"/>
   </g>
   <g id="patch_6">
    <path clip-path="url(#p254bbe694c)" d="M 269.426563 550.865381 
L 821.911889 550.865381 
L 821.911889 521.353612 
L 269.426563 521.353612 
z
" style="fill:#1f77b4;"/>
   </g>
   <g id="patch_7">
    <path clip-path="url(#p254bbe694c)" d="M 269.426563 513.97567 
L 659.437992 513.97567 
L 659.437992 484.4639 
L 269.426563 484.4639 
z
" style="fill:#1f77b4;"/>
   </g>
   <g id="patch_8">
    <path clip-path="url(#p254bbe694c)" d="M 269.426563 477.085958 
L 283.624509 477.085958 
L 283.624509 447.574188 
L 269.426563 447.574188 
z
" style="fill:#1f77b4;"/>
   </g>
   <g id="patch_9">
    <path clip-path="url(#p254bbe694c)" d="M 269.426563 440.196246 
L 315.292104 440.196246 
L 315.292104 410.684476 
L 269.426563 410.684476 
z
" style="fill:#1f77b4;"/>
   </g>
   <g id="patch_10">
    <path clip-path="url(#p254bbe694c)" d="M 269.426563 403.306534 
L 1031.115551 403.306534 
L 1031.115551 373.794765 
L 269.426563 373.794765 
z
" style="fill:#1f77b4;"/>
   </g>
   <g id="patch_11">
    <path clip-path="url(#p254bbe694c)" d="M 269.426563 366.416822 
L 846.727431 366.416822 
L 846.727431 336.905053 
L 269.426563 336.905053 
z
" style="fill:#1f77b4;"/>
   </g>
   <g id="patch_12">
    <path clip-path="url(#p254bbe694c)" d="M 269.426563 329.52711 
L 878.456756 329.52711 
L 878.456756 300.015341 
L 269.426563 300.015341 
z
" style="fill:#1f77b4;"/>
   </g>
   <g id="patch_13">
    <path clip-path="url(#p254bbe694c)" d="M 269.426563 292.637399 
L 448.320694 292.637399 
L 448.320694 263.125629 
L 269.426563 263.125629 
z
" style="fill:#1f77b4;"/>
   </g>
   <g id="patch_14">
    <path clip-path="url(#p254bbe694c)" d="M 269.426563 255.747687 
L 798.330951 255.747687 
L 798.330951 226.235917 
L 269.426563 226.235917 
z
" style="fill:#1f77b4;"/>
   </g>
   <g id="patch_15">
    <path clip-path="url(#p254bbe694c)" d="M 269.426563 218.857975 
L 368.194889 218.857975 
L 368.194889 189.346205 
L 269.426563 189.346205 
z
" style="fill:#1f77b4;"/>
   </g>
   <g id="patch_16">
    <path clip-path="url(#p254bbe694c)" d="M 269.426563 181.968263 
L 274.79709 181.968263 
L 274.79709 152.456494 
L 269.426563 152.456494 
z
" style="fill:#1f77b4;"/>
   </g>
   <g id="patch_17">
    <path clip-path="url(#p254bbe694c)" d="M 269.426563 145.078551 
L 399.183451 145.078551 
L 399.183451 115.566782 
L 269.426563 115.566782 
z
" style="fill:#1f77b4;"/>
   </g>
   <g id="patch_18">
    <path clip-path="url(#p254bbe694c)" d="M 269.426563 108.188839 
L 674.808813 108.188839 
L 674.808813 78.67707 
L 269.426563 78.67707 
z
" style="fill:#1f77b4;"/>
   </g>
   <g id="patch_19">
    <path clip-path="url(#p254bbe694c)" d="M 269.426563 71.299127 
L 291.772896 71.299127 
L 291.772896 41.787358 
L 269.426563 41.787358 
z
" style="fill:#1f77b4;"/>
   </g>
   <g id="matplotlib.axis_1">
    <g id="xtick_1">
     <g id="line2d_1">
      <defs>
       <path d="M 0 0 
L 0 3.5 
" id="m5b2a3d98b8" style="stroke:#000000;stroke-width:0.8;"/>
      </defs>
      <g>
       <use style="stroke:#000000;stroke-width:0.8;" x="269.426563" xlink:href="#m5b2a3d98b8" y="692.521875"/>
      </g>
     </g>
     <g id="text_1">
      <!-- 0 -->
      <defs>
       <path d="M 31.78125 66.40625 
Q 24.171875 66.40625 20.328125 58.90625 
Q 16.5 51.421875 16.5 36.375 
Q 16.5 21.390625 20.328125 13.890625 
Q 24.171875 6.390625 31.78125 6.390625 
Q 39.453125 6.390625 43.28125 13.890625 
Q 47.125 21.390625 47.125 36.375 
Q 47.125 51.421875 43.28125 58.90625 
Q 39.453125 66.40625 31.78125 66.40625 
z
M 31.78125 74.21875 
Q 44.046875 74.21875 50.515625 64.515625 
Q 56.984375 54.828125 56.984375 36.375 
Q 56.984375 17.96875 50.515625 8.265625 
Q 44.046875 -1.421875 31.78125 -1.421875 
Q 19.53125 -1.421875 13.0625 8.265625 
Q 6.59375 17.96875 6.59375 36.375 
Q 6.59375 54.828125 13.0625 64.515625 
Q 19.53125 74.21875 31.78125 74.21875 
z
" id="DejaVuSans-48"/>
      </defs>
      <g transform="translate(266.245313 707.120313)scale(0.1 -0.1)">
       <use xlink:href="#DejaVuSans-48"/>
      </g>
     </g>
    </g>
    <g id="xtick_2">
     <g id="line2d_2">
      <g>
       <use style="stroke:#000000;stroke-width:0.8;" x="392.886971" xlink:href="#m5b2a3d98b8" y="692.521875"/>
      </g>
     </g>
     <g id="text_2">
      <!-- 2000 -->
      <defs>
       <path d="M 19.1875 8.296875 
L 53.609375 8.296875 
L 53.609375 0 
L 7.328125 0 
L 7.328125 8.296875 
Q 12.9375 14.109375 22.625 23.890625 
Q 32.328125 33.6875 34.8125 36.53125 
Q 39.546875 41.84375 41.421875 45.53125 
Q 43.3125 49.21875 43.3125 52.78125 
Q 43.3125 58.59375 39.234375 62.25 
Q 35.15625 65.921875 28.609375 65.921875 
Q 23.96875 65.921875 18.8125 64.3125 
Q 13.671875 62.703125 7.8125 59.421875 
L 7.8125 69.390625 
Q 13.765625 71.78125 18.9375 73 
Q 24.125 74.21875 28.421875 74.21875 
Q 39.75 74.21875 46.484375 68.546875 
Q 53.21875 62.890625 53.21875 53.421875 
Q 53.21875 48.921875 51.53125 44.890625 
Q 49.859375 40.875 45.40625 35.40625 
Q 44.1875 33.984375 37.640625 27.21875 
Q 31.109375 20.453125 19.1875 8.296875 
z
" id="DejaVuSans-50"/>
      </defs>
      <g transform="translate(380.161971 707.120313)scale(0.1 -0.1)">
       <use xlink:href="#DejaVuSans-50"/>
       <use x="63.623047" xlink:href="#DejaVuSans-48"/>
       <use x="127.246094" xlink:href="#DejaVuSans-48"/>
       <use x="190.869141" xlink:href="#DejaVuSans-48"/>
      </g>
     </g>
    </g>
    <g id="xtick_3">
     <g id="line2d_3">
      <g>
       <use style="stroke:#000000;stroke-width:0.8;" x="516.347379" xlink:href="#m5b2a3d98b8" y="692.521875"/>
      </g>
     </g>
     <g id="text_3">
      <!-- 4000 -->
      <defs>
       <path d="M 37.796875 64.3125 
L 12.890625 25.390625 
L 37.796875 25.390625 
z
M 35.203125 72.90625 
L 47.609375 72.90625 
L 47.609375 25.390625 
L 58.015625 25.390625 
L 58.015625 17.1875 
L 47.609375 17.1875 
L 47.609375 0 
L 37.796875 0 
L 37.796875 17.1875 
L 4.890625 17.1875 
L 4.890625 26.703125 
z
" id="DejaVuSans-52"/>
      </defs>
      <g transform="translate(503.622379 707.120313)scale(0.1 -0.1)">
       <use xlink:href="#DejaVuSans-52"/>
       <use x="63.623047" xlink:href="#DejaVuSans-48"/>
       <use x="127.246094" xlink:href="#DejaVuSans-48"/>
       <use x="190.869141" xlink:href="#DejaVuSans-48"/>
      </g>
     </g>
    </g>
    <g id="xtick_4">
     <g id="line2d_4">
      <g>
       <use style="stroke:#000000;stroke-width:0.8;" x="639.807787" xlink:href="#m5b2a3d98b8" y="692.521875"/>
      </g>
     </g>
     <g id="text_4">
      <!-- 6000 -->
      <defs>
       <path d="M 33.015625 40.375 
Q 26.375 40.375 22.484375 35.828125 
Q 18.609375 31.296875 18.609375 23.390625 
Q 18.609375 15.53125 22.484375 10.953125 
Q 26.375 6.390625 33.015625 6.390625 
Q 39.65625 6.390625 43.53125 10.953125 
Q 47.40625 15.53125 47.40625 23.390625 
Q 47.40625 31.296875 43.53125 35.828125 
Q 39.65625 40.375 33.015625 40.375 
z
M 52.59375 71.296875 
L 52.59375 62.3125 
Q 48.875 64.0625 45.09375 64.984375 
Q 41.3125 65.921875 37.59375 65.921875 
Q 27.828125 65.921875 22.671875 59.328125 
Q 17.53125 52.734375 16.796875 39.40625 
Q 19.671875 43.65625 24.015625 45.921875 
Q 28.375 48.1875 33.59375 48.1875 
Q 44.578125 48.1875 50.953125 41.515625 
Q 57.328125 34.859375 57.328125 23.390625 
Q 57.328125 12.15625 50.6875 5.359375 
Q 44.046875 -1.421875 33.015625 -1.421875 
Q 20.359375 -1.421875 13.671875 8.265625 
Q 6.984375 17.96875 6.984375 36.375 
Q 6.984375 53.65625 15.1875 63.9375 
Q 23.390625 74.21875 37.203125 74.21875 
Q 40.921875 74.21875 44.703125 73.484375 
Q 48.484375 72.75 52.59375 71.296875 
z
" id="DejaVuSans-54"/>
      </defs>
      <g transform="translate(627.082787 707.120313)scale(0.1 -0.1)">
       <use xlink:href="#DejaVuSans-54"/>
       <use x="63.623047" xlink:href="#DejaVuSans-48"/>
       <use x="127.246094" xlink:href="#DejaVuSans-48"/>
       <use x="190.869141" xlink:href="#DejaVuSans-48"/>
      </g>
     </g>
    </g>
    <g id="xtick_5">
     <g id="line2d_5">
      <g>
       <use style="stroke:#000000;stroke-width:0.8;" x="763.268195" xlink:href="#m5b2a3d98b8" y="692.521875"/>
      </g>
     </g>
     <g id="text_5">
      <!-- 8000 -->
      <defs>
       <path d="M 31.78125 34.625 
Q 24.75 34.625 20.71875 30.859375 
Q 16.703125 27.09375 16.703125 20.515625 
Q 16.703125 13.921875 20.71875 10.15625 
Q 24.75 6.390625 31.78125 6.390625 
Q 38.8125 6.390625 42.859375 10.171875 
Q 46.921875 13.96875 46.921875 20.515625 
Q 46.921875 27.09375 42.890625 30.859375 
Q 38.875 34.625 31.78125 34.625 
z
M 21.921875 38.8125 
Q 15.578125 40.375 12.03125 44.71875 
Q 8.5 49.078125 8.5 55.328125 
Q 8.5 64.0625 14.71875 69.140625 
Q 20.953125 74.21875 31.78125 74.21875 
Q 42.671875 74.21875 48.875 69.140625 
Q 55.078125 64.0625 55.078125 55.328125 
Q 55.078125 49.078125 51.53125 44.71875 
Q 48 40.375 41.703125 38.8125 
Q 48.828125 37.15625 52.796875 32.3125 
Q 56.78125 27.484375 56.78125 20.515625 
Q 56.78125 9.90625 50.3125 4.234375 
Q 43.84375 -1.421875 31.78125 -1.421875 
Q 19.734375 -1.421875 13.25 4.234375 
Q 6.78125 9.90625 6.78125 20.515625 
Q 6.78125 27.484375 10.78125 32.3125 
Q 14.796875 37.15625 21.921875 38.8125 
z
M 18.3125 54.390625 
Q 18.3125 48.734375 21.84375 45.5625 
Q 25.390625 42.390625 31.78125 42.390625 
Q 38.140625 42.390625 41.71875 45.5625 
Q 45.3125 48.734375 45.3125 54.390625 
Q 45.3125 60.0625 41.71875 63.234375 
Q 38.140625 66.40625 31.78125 66.40625 
Q 25.390625 66.40625 21.84375 63.234375 
Q 18.3125 60.0625 18.3125 54.390625 
z
" id="DejaVuSans-56"/>
      </defs>
      <g transform="translate(750.543195 707.120313)scale(0.1 -0.1)">
       <use xlink:href="#DejaVuSans-56"/>
       <use x="63.623047" xlink:href="#DejaVuSans-48"/>
       <use x="127.246094" xlink:href="#DejaVuSans-48"/>
       <use x="190.869141" xlink:href="#DejaVuSans-48"/>
      </g>
     </g>
    </g>
    <g id="xtick_6">
     <g id="line2d_6">
      <g>
       <use style="stroke:#000000;stroke-width:0.8;" x="886.728603" xlink:href="#m5b2a3d98b8" y="692.521875"/>
      </g>
     </g>
     <g id="text_6">
      <!-- 10000 -->
      <defs>
       <path d="M 12.40625 8.296875 
L 28.515625 8.296875 
L 28.515625 63.921875 
L 10.984375 60.40625 
L 10.984375 69.390625 
L 28.421875 72.90625 
L 38.28125 72.90625 
L 38.28125 8.296875 
L 54.390625 8.296875 
L 54.390625 0 
L 12.40625 0 
z
" id="DejaVuSans-49"/>
      </defs>
      <g transform="translate(870.822353 707.120313)scale(0.1 -0.1)">
       <use xlink:href="#DejaVuSans-49"/>
       <use x="63.623047" xlink:href="#DejaVuSans-48"/>
       <use x="127.246094" xlink:href="#DejaVuSans-48"/>
       <use x="190.869141" xlink:href="#DejaVuSans-48"/>
       <use x="254.492188" xlink:href="#DejaVuSans-48"/>
      </g>
     </g>
    </g>
    <g id="xtick_7">
     <g id="line2d_7">
      <g>
       <use style="stroke:#000000;stroke-width:0.8;" x="1010.189011" xlink:href="#m5b2a3d98b8" y="692.521875"/>
      </g>
     </g>
     <g id="text_7">
      <!-- 12000 -->
      <g transform="translate(994.282761 707.120313)scale(0.1 -0.1)">
       <use xlink:href="#DejaVuSans-49"/>
       <use x="63.623047" xlink:href="#DejaVuSans-50"/>
       <use x="127.246094" xlink:href="#DejaVuSans-48"/>
       <use x="190.869141" xlink:href="#DejaVuSans-48"/>
       <use x="254.492188" xlink:href="#DejaVuSans-48"/>
      </g>
     </g>
    </g>
   </g>
   <g id="matplotlib.axis_2">
    <g id="ytick_1">
     <g id="line2d_8">
      <defs>
       <path d="M 0 0 
L -3.5 0 
" id="mbdb9b006c9" style="stroke:#000000;stroke-width:0.8;"/>
      </defs>
      <g>
       <use style="stroke:#000000;stroke-width:0.8;" x="269.426563" xlink:href="#mbdb9b006c9" y="646.778632"/>
      </g>
     </g>
     <g id="text_8">
      <!-- 17-ALIANZAS -->
      <defs>
       <path d="M 8.203125 72.90625 
L 55.078125 72.90625 
L 55.078125 68.703125 
L 28.609375 0 
L 18.3125 0 
L 43.21875 64.59375 
L 8.203125 64.59375 
z
" id="DejaVuSans-55"/>
       <path d="M 4.890625 31.390625 
L 31.203125 31.390625 
L 31.203125 23.390625 
L 4.890625 23.390625 
z
" id="DejaVuSans-45"/>
       <path d="M 34.1875 63.1875 
L 20.796875 26.90625 
L 47.609375 26.90625 
z
M 28.609375 72.90625 
L 39.796875 72.90625 
L 67.578125 0 
L 57.328125 0 
L 50.6875 18.703125 
L 17.828125 18.703125 
L 11.1875 0 
L 0.78125 0 
z
" id="DejaVuSans-65"/>
       <path d="M 9.8125 72.90625 
L 19.671875 72.90625 
L 19.671875 8.296875 
L 55.171875 8.296875 
L 55.171875 0 
L 9.8125 0 
z
" id="DejaVuSans-76"/>
       <path d="M 9.8125 72.90625 
L 19.671875 72.90625 
L 19.671875 0 
L 9.8125 0 
z
" id="DejaVuSans-73"/>
       <path d="M 9.8125 72.90625 
L 23.09375 72.90625 
L 55.421875 11.921875 
L 55.421875 72.90625 
L 64.984375 72.90625 
L 64.984375 0 
L 51.703125 0 
L 19.390625 60.984375 
L 19.390625 0 
L 9.8125 0 
z
" id="DejaVuSans-78"/>
       <path d="M 5.609375 72.90625 
L 62.890625 72.90625 
L 62.890625 65.375 
L 16.796875 8.296875 
L 64.015625 8.296875 
L 64.015625 0 
L 4.5 0 
L 4.5 7.515625 
L 50.59375 64.59375 
L 5.609375 64.59375 
z
" id="DejaVuSans-90"/>
       <path d="M 53.515625 70.515625 
L 53.515625 60.890625 
Q 47.90625 63.578125 42.921875 64.890625 
Q 37.9375 66.21875 33.296875 66.21875 
Q 25.25 66.21875 20.875 63.09375 
Q 16.5 59.96875 16.5 54.203125 
Q 16.5 49.359375 19.40625 46.890625 
Q 22.3125 44.4375 30.421875 42.921875 
L 36.375 41.703125 
Q 47.40625 39.59375 52.65625 34.296875 
Q 57.90625 29 57.90625 20.125 
Q 57.90625 9.515625 50.796875 4.046875 
Q 43.703125 -1.421875 29.984375 -1.421875 
Q 24.8125 -1.421875 18.96875 -0.25 
Q 13.140625 0.921875 6.890625 3.21875 
L 6.890625 13.375 
Q 12.890625 10.015625 18.65625 8.296875 
Q 24.421875 6.59375 29.984375 6.59375 
Q 38.421875 6.59375 43.015625 9.90625 
Q 47.609375 13.234375 47.609375 19.390625 
Q 47.609375 24.75 44.3125 27.78125 
Q 41.015625 30.8125 33.5 32.328125 
L 27.484375 33.5 
Q 16.453125 35.6875 11.515625 40.375 
Q 6.59375 45.0625 6.59375 53.421875 
Q 6.59375 63.09375 13.40625 68.65625 
Q 20.21875 74.21875 32.171875 74.21875 
Q 37.3125 74.21875 42.625 73.28125 
Q 47.953125 72.359375 53.515625 70.515625 
z
" id="DejaVuSans-83"/>
      </defs>
      <g transform="translate(196.595313 650.577851)scale(0.1 -0.1)">
       <use xlink:href="#DejaVuSans-49"/>
       <use x="63.623047" xlink:href="#DejaVuSans-55"/>
       <use x="127.246094" xlink:href="#DejaVuSans-45"/>
       <use x="161.080078" xlink:href="#DejaVuSans-65"/>
       <use x="229.488281" xlink:href="#DejaVuSans-76"/>
       <use x="285.201172" xlink:href="#DejaVuSans-73"/>
       <use x="314.693359" xlink:href="#DejaVuSans-65"/>
       <use x="383.101562" xlink:href="#DejaVuSans-78"/>
       <use x="457.90625" xlink:href="#DejaVuSans-90"/>
       <use x="526.412109" xlink:href="#DejaVuSans-65"/>
       <use x="594.820312" xlink:href="#DejaVuSans-83"/>
      </g>
     </g>
    </g>
    <g id="ytick_2">
     <g id="line2d_9">
      <g>
       <use style="stroke:#000000;stroke-width:0.8;" x="269.426563" xlink:href="#mbdb9b006c9" y="609.88892"/>
      </g>
     </g>
     <g id="text_9">
      <!-- 16-PAZ, JUSTICIA, INSTITUCIONES SOLIDAS -->
      <defs>
       <path d="M 19.671875 64.796875 
L 19.671875 37.40625 
L 32.078125 37.40625 
Q 38.96875 37.40625 42.71875 40.96875 
Q 46.484375 44.53125 46.484375 51.125 
Q 46.484375 57.671875 42.71875 61.234375 
Q 38.96875 64.796875 32.078125 64.796875 
z
M 9.8125 72.90625 
L 32.078125 72.90625 
Q 44.34375 72.90625 50.609375 67.359375 
Q 56.890625 61.8125 56.890625 51.125 
Q 56.890625 40.328125 50.609375 34.8125 
Q 44.34375 29.296875 32.078125 29.296875 
L 19.671875 29.296875 
L 19.671875 0 
L 9.8125 0 
z
" id="DejaVuSans-80"/>
       <path d="M 11.71875 12.40625 
L 22.015625 12.40625 
L 22.015625 4 
L 14.015625 -11.625 
L 7.71875 -11.625 
L 11.71875 4 
z
" id="DejaVuSans-44"/>
       <path id="DejaVuSans-32"/>
       <path d="M 9.8125 72.90625 
L 19.671875 72.90625 
L 19.671875 5.078125 
Q 19.671875 -8.109375 14.671875 -14.0625 
Q 9.671875 -20.015625 -1.421875 -20.015625 
L -5.171875 -20.015625 
L -5.171875 -11.71875 
L -2.09375 -11.71875 
Q 4.4375 -11.71875 7.125 -8.046875 
Q 9.8125 -4.390625 9.8125 5.078125 
z
" id="DejaVuSans-74"/>
       <path d="M 8.6875 72.90625 
L 18.609375 72.90625 
L 18.609375 28.609375 
Q 18.609375 16.890625 22.84375 11.734375 
Q 27.09375 6.59375 36.625 6.59375 
Q 46.09375 6.59375 50.34375 11.734375 
Q 54.59375 16.890625 54.59375 28.609375 
L 54.59375 72.90625 
L 64.5 72.90625 
L 64.5 27.390625 
Q 64.5 13.140625 57.4375 5.859375 
Q 50.390625 -1.421875 36.625 -1.421875 
Q 22.796875 -1.421875 15.734375 5.859375 
Q 8.6875 13.140625 8.6875 27.390625 
z
" id="DejaVuSans-85"/>
       <path d="M -0.296875 72.90625 
L 61.375 72.90625 
L 61.375 64.59375 
L 35.5 64.59375 
L 35.5 0 
L 25.59375 0 
L 25.59375 64.59375 
L -0.296875 64.59375 
z
" id="DejaVuSans-84"/>
       <path d="M 64.40625 67.28125 
L 64.40625 56.890625 
Q 59.421875 61.53125 53.78125 63.8125 
Q 48.140625 66.109375 41.796875 66.109375 
Q 29.296875 66.109375 22.65625 58.46875 
Q 16.015625 50.828125 16.015625 36.375 
Q 16.015625 21.96875 22.65625 14.328125 
Q 29.296875 6.6875 41.796875 6.6875 
Q 48.140625 6.6875 53.78125 8.984375 
Q 59.421875 11.28125 64.40625 15.921875 
L 64.40625 5.609375 
Q 59.234375 2.09375 53.4375 0.328125 
Q 47.65625 -1.421875 41.21875 -1.421875 
Q 24.65625 -1.421875 15.125 8.703125 
Q 5.609375 18.84375 5.609375 36.375 
Q 5.609375 53.953125 15.125 64.078125 
Q 24.65625 74.21875 41.21875 74.21875 
Q 47.75 74.21875 53.53125 72.484375 
Q 59.328125 70.75 64.40625 67.28125 
z
" id="DejaVuSans-67"/>
       <path d="M 39.40625 66.21875 
Q 28.65625 66.21875 22.328125 58.203125 
Q 16.015625 50.203125 16.015625 36.375 
Q 16.015625 22.609375 22.328125 14.59375 
Q 28.65625 6.59375 39.40625 6.59375 
Q 50.140625 6.59375 56.421875 14.59375 
Q 62.703125 22.609375 62.703125 36.375 
Q 62.703125 50.203125 56.421875 58.203125 
Q 50.140625 66.21875 39.40625 66.21875 
z
M 39.40625 74.21875 
Q 54.734375 74.21875 63.90625 63.9375 
Q 73.09375 53.65625 73.09375 36.375 
Q 73.09375 19.140625 63.90625 8.859375 
Q 54.734375 -1.421875 39.40625 -1.421875 
Q 24.03125 -1.421875 14.8125 8.828125 
Q 5.609375 19.09375 5.609375 36.375 
Q 5.609375 53.65625 14.8125 63.9375 
Q 24.03125 74.21875 39.40625 74.21875 
z
" id="DejaVuSans-79"/>
       <path d="M 9.8125 72.90625 
L 55.90625 72.90625 
L 55.90625 64.59375 
L 19.671875 64.59375 
L 19.671875 43.015625 
L 54.390625 43.015625 
L 54.390625 34.71875 
L 19.671875 34.71875 
L 19.671875 8.296875 
L 56.78125 8.296875 
L 56.78125 0 
L 9.8125 0 
z
" id="DejaVuSans-69"/>
       <path d="M 19.671875 64.796875 
L 19.671875 8.109375 
L 31.59375 8.109375 
Q 46.6875 8.109375 53.6875 14.9375 
Q 60.6875 21.78125 60.6875 36.53125 
Q 60.6875 51.171875 53.6875 57.984375 
Q 46.6875 64.796875 31.59375 64.796875 
z
M 9.8125 72.90625 
L 30.078125 72.90625 
Q 51.265625 72.90625 61.171875 64.09375 
Q 71.09375 55.28125 71.09375 36.53125 
Q 71.09375 17.671875 61.125 8.828125 
Q 51.171875 0 30.078125 0 
L 9.8125 0 
z
" id="DejaVuSans-68"/>
      </defs>
      <g transform="translate(47.998438 613.688139)scale(0.1 -0.1)">
       <use xlink:href="#DejaVuSans-49"/>
       <use x="63.623047" xlink:href="#DejaVuSans-54"/>
       <use x="127.246094" xlink:href="#DejaVuSans-45"/>
       <use x="163.330078" xlink:href="#DejaVuSans-80"/>
       <use x="217.257812" xlink:href="#DejaVuSans-65"/>
       <use x="285.666016" xlink:href="#DejaVuSans-90"/>
       <use x="354.171875" xlink:href="#DejaVuSans-44"/>
       <use x="385.958984" xlink:href="#DejaVuSans-32"/>
       <use x="417.746094" xlink:href="#DejaVuSans-74"/>
       <use x="447.238281" xlink:href="#DejaVuSans-85"/>
       <use x="520.431641" xlink:href="#DejaVuSans-83"/>
       <use x="583.908203" xlink:href="#DejaVuSans-84"/>
       <use x="644.992188" xlink:href="#DejaVuSans-73"/>
       <use x="674.484375" xlink:href="#DejaVuSans-67"/>
       <use x="744.308594" xlink:href="#DejaVuSans-73"/>
       <use x="773.800781" xlink:href="#DejaVuSans-65"/>
       <use x="842.208984" xlink:href="#DejaVuSans-44"/>
       <use x="873.996094" xlink:href="#DejaVuSans-32"/>
       <use x="905.783203" xlink:href="#DejaVuSans-73"/>
       <use x="935.275391" xlink:href="#DejaVuSans-78"/>
       <use x="1010.080078" xlink:href="#DejaVuSans-83"/>
       <use x="1073.556641" xlink:href="#DejaVuSans-84"/>
       <use x="1134.640625" xlink:href="#DejaVuSans-73"/>
       <use x="1164.132812" xlink:href="#DejaVuSans-84"/>
       <use x="1225.216797" xlink:href="#DejaVuSans-85"/>
       <use x="1298.410156" xlink:href="#DejaVuSans-67"/>
       <use x="1368.234375" xlink:href="#DejaVuSans-73"/>
       <use x="1397.726562" xlink:href="#DejaVuSans-79"/>
       <use x="1476.4375" xlink:href="#DejaVuSans-78"/>
       <use x="1551.242188" xlink:href="#DejaVuSans-69"/>
       <use x="1614.425781" xlink:href="#DejaVuSans-83"/>
       <use x="1677.902344" xlink:href="#DejaVuSans-32"/>
       <use x="1709.689453" xlink:href="#DejaVuSans-83"/>
       <use x="1773.166016" xlink:href="#DejaVuSans-79"/>
       <use x="1851.876953" xlink:href="#DejaVuSans-76"/>
       <use x="1907.589844" xlink:href="#DejaVuSans-73"/>
       <use x="1937.082031" xlink:href="#DejaVuSans-68"/>
       <use x="2012.333984" xlink:href="#DejaVuSans-65"/>
       <use x="2080.742188" xlink:href="#DejaVuSans-83"/>
      </g>
     </g>
    </g>
    <g id="ytick_3">
     <g id="line2d_10">
      <g>
       <use style="stroke:#000000;stroke-width:0.8;" x="269.426563" xlink:href="#mbdb9b006c9" y="572.999209"/>
      </g>
     </g>
     <g id="text_10">
      <!-- 15-VIDA EN ECOSISTEMAS TERRESTRES -->
      <defs>
       <path d="M 10.796875 72.90625 
L 49.515625 72.90625 
L 49.515625 64.59375 
L 19.828125 64.59375 
L 19.828125 46.734375 
Q 21.96875 47.46875 24.109375 47.828125 
Q 26.265625 48.1875 28.421875 48.1875 
Q 40.625 48.1875 47.75 41.5 
Q 54.890625 34.8125 54.890625 23.390625 
Q 54.890625 11.625 47.5625 5.09375 
Q 40.234375 -1.421875 26.90625 -1.421875 
Q 22.3125 -1.421875 17.546875 -0.640625 
Q 12.796875 0.140625 7.71875 1.703125 
L 7.71875 11.625 
Q 12.109375 9.234375 16.796875 8.0625 
Q 21.484375 6.890625 26.703125 6.890625 
Q 35.15625 6.890625 40.078125 11.328125 
Q 45.015625 15.765625 45.015625 23.390625 
Q 45.015625 31 40.078125 35.4375 
Q 35.15625 39.890625 26.703125 39.890625 
Q 22.75 39.890625 18.8125 39.015625 
Q 14.890625 38.140625 10.796875 36.28125 
z
" id="DejaVuSans-53"/>
       <path d="M 28.609375 0 
L 0.78125 72.90625 
L 11.078125 72.90625 
L 34.1875 11.53125 
L 57.328125 72.90625 
L 67.578125 72.90625 
L 39.796875 0 
z
" id="DejaVuSans-86"/>
       <path d="M 9.8125 72.90625 
L 24.515625 72.90625 
L 43.109375 23.296875 
L 61.8125 72.90625 
L 76.515625 72.90625 
L 76.515625 0 
L 66.890625 0 
L 66.890625 64.015625 
L 48.09375 14.015625 
L 38.1875 14.015625 
L 19.390625 64.015625 
L 19.390625 0 
L 9.8125 0 
z
" id="DejaVuSans-77"/>
       <path d="M 44.390625 34.1875 
Q 47.5625 33.109375 50.5625 29.59375 
Q 53.5625 26.078125 56.59375 19.921875 
L 66.609375 0 
L 56 0 
L 46.6875 18.703125 
Q 43.0625 26.03125 39.671875 28.421875 
Q 36.28125 30.8125 30.421875 30.8125 
L 19.671875 30.8125 
L 19.671875 0 
L 9.8125 0 
L 9.8125 72.90625 
L 32.078125 72.90625 
Q 44.578125 72.90625 50.734375 67.671875 
Q 56.890625 62.453125 56.890625 51.90625 
Q 56.890625 45.015625 53.6875 40.46875 
Q 50.484375 35.9375 44.390625 34.1875 
z
M 19.671875 64.796875 
L 19.671875 38.921875 
L 32.078125 38.921875 
Q 39.203125 38.921875 42.84375 42.21875 
Q 46.484375 45.515625 46.484375 51.90625 
Q 46.484375 58.296875 42.84375 61.546875 
Q 39.203125 64.796875 32.078125 64.796875 
z
" id="DejaVuSans-82"/>
      </defs>
      <g transform="translate(63.4125 576.798427)scale(0.1 -0.1)">
       <use xlink:href="#DejaVuSans-49"/>
       <use x="63.623047" xlink:href="#DejaVuSans-53"/>
       <use x="127.246094" xlink:href="#DejaVuSans-45"/>
       <use x="157.455078" xlink:href="#DejaVuSans-86"/>
       <use x="225.863281" xlink:href="#DejaVuSans-73"/>
       <use x="255.355469" xlink:href="#DejaVuSans-68"/>
       <use x="330.607422" xlink:href="#DejaVuSans-65"/>
       <use x="399.015625" xlink:href="#DejaVuSans-32"/>
       <use x="430.802734" xlink:href="#DejaVuSans-69"/>
       <use x="493.986328" xlink:href="#DejaVuSans-78"/>
       <use x="568.791016" xlink:href="#DejaVuSans-32"/>
       <use x="600.578125" xlink:href="#DejaVuSans-69"/>
       <use x="663.761719" xlink:href="#DejaVuSans-67"/>
       <use x="733.585938" xlink:href="#DejaVuSans-79"/>
       <use x="812.296875" xlink:href="#DejaVuSans-83"/>
       <use x="875.773438" xlink:href="#DejaVuSans-73"/>
       <use x="905.265625" xlink:href="#DejaVuSans-83"/>
       <use x="968.742188" xlink:href="#DejaVuSans-84"/>
       <use x="1029.826172" xlink:href="#DejaVuSans-69"/>
       <use x="1093.009766" xlink:href="#DejaVuSans-77"/>
       <use x="1179.289062" xlink:href="#DejaVuSans-65"/>
       <use x="1247.697266" xlink:href="#DejaVuSans-83"/>
       <use x="1311.173828" xlink:href="#DejaVuSans-32"/>
       <use x="1342.960938" xlink:href="#DejaVuSans-84"/>
       <use x="1404.044922" xlink:href="#DejaVuSans-69"/>
       <use x="1467.228516" xlink:href="#DejaVuSans-82"/>
       <use x="1536.710938" xlink:href="#DejaVuSans-82"/>
       <use x="1606.193359" xlink:href="#DejaVuSans-69"/>
       <use x="1669.376953" xlink:href="#DejaVuSans-83"/>
       <use x="1732.853516" xlink:href="#DejaVuSans-84"/>
       <use x="1793.9375" xlink:href="#DejaVuSans-82"/>
       <use x="1863.419922" xlink:href="#DejaVuSans-69"/>
       <use x="1926.603516" xlink:href="#DejaVuSans-83"/>
      </g>
     </g>
    </g>
    <g id="ytick_4">
     <g id="line2d_11">
      <g>
       <use style="stroke:#000000;stroke-width:0.8;" x="269.426563" xlink:href="#mbdb9b006c9" y="536.109497"/>
      </g>
     </g>
     <g id="text_11">
      <!-- 14-VIDA SUBMARINA -->
      <defs>
       <path d="M 19.671875 34.8125 
L 19.671875 8.109375 
L 35.5 8.109375 
Q 43.453125 8.109375 47.28125 11.40625 
Q 51.125 14.703125 51.125 21.484375 
Q 51.125 28.328125 47.28125 31.5625 
Q 43.453125 34.8125 35.5 34.8125 
z
M 19.671875 64.796875 
L 19.671875 42.828125 
L 34.28125 42.828125 
Q 41.5 42.828125 45.03125 45.53125 
Q 48.578125 48.25 48.578125 53.8125 
Q 48.578125 59.328125 45.03125 62.0625 
Q 41.5 64.796875 34.28125 64.796875 
z
M 9.8125 72.90625 
L 35.015625 72.90625 
Q 46.296875 72.90625 52.390625 68.21875 
Q 58.5 63.53125 58.5 54.890625 
Q 58.5 48.1875 55.375 44.234375 
Q 52.25 40.28125 46.1875 39.3125 
Q 53.46875 37.75 57.5 32.78125 
Q 61.53125 27.828125 61.53125 20.40625 
Q 61.53125 10.640625 54.890625 5.3125 
Q 48.25 0 35.984375 0 
L 9.8125 0 
z
" id="DejaVuSans-66"/>
      </defs>
      <g transform="translate(159.129688 539.908716)scale(0.1 -0.1)">
       <use xlink:href="#DejaVuSans-49"/>
       <use x="63.623047" xlink:href="#DejaVuSans-52"/>
       <use x="127.246094" xlink:href="#DejaVuSans-45"/>
       <use x="157.455078" xlink:href="#DejaVuSans-86"/>
       <use x="225.863281" xlink:href="#DejaVuSans-73"/>
       <use x="255.355469" xlink:href="#DejaVuSans-68"/>
       <use x="330.607422" xlink:href="#DejaVuSans-65"/>
       <use x="399.015625" xlink:href="#DejaVuSans-32"/>
       <use x="430.802734" xlink:href="#DejaVuSans-83"/>
       <use x="494.279297" xlink:href="#DejaVuSans-85"/>
       <use x="567.472656" xlink:href="#DejaVuSans-66"/>
       <use x="636.076172" xlink:href="#DejaVuSans-77"/>
       <use x="722.355469" xlink:href="#DejaVuSans-65"/>
       <use x="790.763672" xlink:href="#DejaVuSans-82"/>
       <use x="860.246094" xlink:href="#DejaVuSans-73"/>
       <use x="889.738281" xlink:href="#DejaVuSans-78"/>
       <use x="964.542969" xlink:href="#DejaVuSans-65"/>
      </g>
     </g>
    </g>
    <g id="ytick_5">
     <g id="line2d_12">
      <g>
       <use style="stroke:#000000;stroke-width:0.8;" x="269.426563" xlink:href="#mbdb9b006c9" y="499.219785"/>
      </g>
     </g>
     <g id="text_12">
      <!-- 13-CAMBIO CLIMÁTICO -->
      <defs>
       <path d="M 40.578125 39.3125 
Q 47.65625 37.796875 51.625 33 
Q 55.609375 28.21875 55.609375 21.1875 
Q 55.609375 10.40625 48.1875 4.484375 
Q 40.765625 -1.421875 27.09375 -1.421875 
Q 22.515625 -1.421875 17.65625 -0.515625 
Q 12.796875 0.390625 7.625 2.203125 
L 7.625 11.71875 
Q 11.71875 9.328125 16.59375 8.109375 
Q 21.484375 6.890625 26.8125 6.890625 
Q 36.078125 6.890625 40.9375 10.546875 
Q 45.796875 14.203125 45.796875 21.1875 
Q 45.796875 27.640625 41.28125 31.265625 
Q 36.765625 34.90625 28.71875 34.90625 
L 20.21875 34.90625 
L 20.21875 43.015625 
L 29.109375 43.015625 
Q 36.375 43.015625 40.234375 45.921875 
Q 44.09375 48.828125 44.09375 54.296875 
Q 44.09375 59.90625 40.109375 62.90625 
Q 36.140625 65.921875 28.71875 65.921875 
Q 24.65625 65.921875 20.015625 65.03125 
Q 15.375 64.15625 9.8125 62.3125 
L 9.8125 71.09375 
Q 15.4375 72.65625 20.34375 73.4375 
Q 25.25 74.21875 29.59375 74.21875 
Q 40.828125 74.21875 47.359375 69.109375 
Q 53.90625 64.015625 53.90625 55.328125 
Q 53.90625 49.265625 50.4375 45.09375 
Q 46.96875 40.921875 40.578125 39.3125 
z
" id="DejaVuSans-51"/>
       <path d="M 34.1875 63.1875 
L 20.796875 26.90625 
L 47.609375 26.90625 
z
M 28.609375 72.90625 
L 39.796875 72.90625 
L 67.578125 0 
L 57.328125 0 
L 50.6875 18.703125 
L 17.828125 18.703125 
L 11.1875 0 
L 0.78125 0 
z
M 36.859375 92.734375 
L 45.90625 92.734375 
L 34.765625 79.84375 
L 27.296875 79.84375 
z
" id="DejaVuSans-193"/>
      </defs>
      <g transform="translate(148.670313 503.019004)scale(0.1 -0.1)">
       <use xlink:href="#DejaVuSans-49"/>
       <use x="63.623047" xlink:href="#DejaVuSans-51"/>
       <use x="127.246094" xlink:href="#DejaVuSans-45"/>
       <use x="163.330078" xlink:href="#DejaVuSans-67"/>
       <use x="233.154297" xlink:href="#DejaVuSans-65"/>
       <use x="301.5625" xlink:href="#DejaVuSans-77"/>
       <use x="387.841797" xlink:href="#DejaVuSans-66"/>
       <use x="456.445312" xlink:href="#DejaVuSans-73"/>
       <use x="485.9375" xlink:href="#DejaVuSans-79"/>
       <use x="564.648438" xlink:href="#DejaVuSans-32"/>
       <use x="596.435547" xlink:href="#DejaVuSans-67"/>
       <use x="666.259766" xlink:href="#DejaVuSans-76"/>
       <use x="721.972656" xlink:href="#DejaVuSans-73"/>
       <use x="751.464844" xlink:href="#DejaVuSans-77"/>
       <use x="837.744141" xlink:href="#DejaVuSans-193"/>
       <use x="898.402344" xlink:href="#DejaVuSans-84"/>
       <use x="959.486328" xlink:href="#DejaVuSans-73"/>
       <use x="988.978516" xlink:href="#DejaVuSans-67"/>
       <use x="1058.802734" xlink:href="#DejaVuSans-79"/>
      </g>
     </g>
    </g>
    <g id="ytick_6">
     <g id="line2d_13">
      <g>
       <use style="stroke:#000000;stroke-width:0.8;" x="269.426563" xlink:href="#mbdb9b006c9" y="462.330073"/>
      </g>
     </g>
     <g id="text_13">
      <!-- 12-PRODUCCIÓN Y CONSUMO RESPONSABLE -->
      <defs>
       <path d="M 39.40625 66.21875 
Q 28.65625 66.21875 22.328125 58.203125 
Q 16.015625 50.203125 16.015625 36.375 
Q 16.015625 22.609375 22.328125 14.59375 
Q 28.65625 6.59375 39.40625 6.59375 
Q 50.140625 6.59375 56.421875 14.59375 
Q 62.703125 22.609375 62.703125 36.375 
Q 62.703125 50.203125 56.421875 58.203125 
Q 50.140625 66.21875 39.40625 66.21875 
z
M 39.40625 74.21875 
Q 54.734375 74.21875 63.90625 63.9375 
Q 73.09375 53.65625 73.09375 36.375 
Q 73.09375 19.140625 63.90625 8.859375 
Q 54.734375 -1.421875 39.40625 -1.421875 
Q 24.03125 -1.421875 14.8125 8.828125 
Q 5.609375 19.09375 5.609375 36.375 
Q 5.609375 53.65625 14.8125 63.9375 
Q 24.03125 74.21875 39.40625 74.21875 
z
M 42.09375 92.734375 
L 51.125 92.734375 
L 39.984375 79.84375 
L 32.515625 79.84375 
z
" id="DejaVuSans-211"/>
       <path d="M -0.203125 72.90625 
L 10.40625 72.90625 
L 30.609375 42.921875 
L 50.6875 72.90625 
L 61.28125 72.90625 
L 35.5 34.71875 
L 35.5 0 
L 25.59375 0 
L 25.59375 34.71875 
z
" id="DejaVuSans-89"/>
      </defs>
      <g transform="translate(36.684375 466.129292)scale(0.1 -0.1)">
       <use xlink:href="#DejaVuSans-49"/>
       <use x="63.623047" xlink:href="#DejaVuSans-50"/>
       <use x="127.246094" xlink:href="#DejaVuSans-45"/>
       <use x="163.330078" xlink:href="#DejaVuSans-80"/>
       <use x="223.632812" xlink:href="#DejaVuSans-82"/>
       <use x="293.115234" xlink:href="#DejaVuSans-79"/>
       <use x="371.826172" xlink:href="#DejaVuSans-68"/>
       <use x="448.828125" xlink:href="#DejaVuSans-85"/>
       <use x="522.021484" xlink:href="#DejaVuSans-67"/>
       <use x="591.845703" xlink:href="#DejaVuSans-67"/>
       <use x="661.669922" xlink:href="#DejaVuSans-73"/>
       <use x="691.162109" xlink:href="#DejaVuSans-211"/>
       <use x="769.873047" xlink:href="#DejaVuSans-78"/>
       <use x="844.677734" xlink:href="#DejaVuSans-32"/>
       <use x="876.464844" xlink:href="#DejaVuSans-89"/>
       <use x="937.548828" xlink:href="#DejaVuSans-32"/>
       <use x="969.335938" xlink:href="#DejaVuSans-67"/>
       <use x="1039.160156" xlink:href="#DejaVuSans-79"/>
       <use x="1117.871094" xlink:href="#DejaVuSans-78"/>
       <use x="1192.675781" xlink:href="#DejaVuSans-83"/>
       <use x="1256.152344" xlink:href="#DejaVuSans-85"/>
       <use x="1329.345703" xlink:href="#DejaVuSans-77"/>
       <use x="1415.625" xlink:href="#DejaVuSans-79"/>
       <use x="1494.335938" xlink:href="#DejaVuSans-32"/>
       <use x="1526.123047" xlink:href="#DejaVuSans-82"/>
       <use x="1595.605469" xlink:href="#DejaVuSans-69"/>
       <use x="1658.789062" xlink:href="#DejaVuSans-83"/>
       <use x="1722.265625" xlink:href="#DejaVuSans-80"/>
       <use x="1782.568359" xlink:href="#DejaVuSans-79"/>
       <use x="1861.279297" xlink:href="#DejaVuSans-78"/>
       <use x="1936.083984" xlink:href="#DejaVuSans-83"/>
       <use x="2001.435547" xlink:href="#DejaVuSans-65"/>
       <use x="2069.84375" xlink:href="#DejaVuSans-66"/>
       <use x="2138.447266" xlink:href="#DejaVuSans-76"/>
       <use x="2194.160156" xlink:href="#DejaVuSans-69"/>
      </g>
     </g>
    </g>
    <g id="ytick_7">
     <g id="line2d_14">
      <g>
       <use style="stroke:#000000;stroke-width:0.8;" x="269.426563" xlink:href="#mbdb9b006c9" y="425.440361"/>
      </g>
     </g>
     <g id="text_14">
      <!-- 11-CIUDADES SOSTENIBLES -->
      <g transform="translate(122.404688 429.23958)scale(0.1 -0.1)">
       <use xlink:href="#DejaVuSans-49"/>
       <use x="63.623047" xlink:href="#DejaVuSans-49"/>
       <use x="127.246094" xlink:href="#DejaVuSans-45"/>
       <use x="163.330078" xlink:href="#DejaVuSans-67"/>
       <use x="233.154297" xlink:href="#DejaVuSans-73"/>
       <use x="262.646484" xlink:href="#DejaVuSans-85"/>
       <use x="335.839844" xlink:href="#DejaVuSans-68"/>
       <use x="411.091797" xlink:href="#DejaVuSans-65"/>
       <use x="479.5" xlink:href="#DejaVuSans-68"/>
       <use x="556.501953" xlink:href="#DejaVuSans-69"/>
       <use x="619.685547" xlink:href="#DejaVuSans-83"/>
       <use x="683.162109" xlink:href="#DejaVuSans-32"/>
       <use x="714.949219" xlink:href="#DejaVuSans-83"/>
       <use x="778.425781" xlink:href="#DejaVuSans-79"/>
       <use x="857.136719" xlink:href="#DejaVuSans-83"/>
       <use x="920.613281" xlink:href="#DejaVuSans-84"/>
       <use x="981.697266" xlink:href="#DejaVuSans-69"/>
       <use x="1044.880859" xlink:href="#DejaVuSans-78"/>
       <use x="1119.685547" xlink:href="#DejaVuSans-73"/>
       <use x="1149.177734" xlink:href="#DejaVuSans-66"/>
       <use x="1217.78125" xlink:href="#DejaVuSans-76"/>
       <use x="1273.494141" xlink:href="#DejaVuSans-69"/>
       <use x="1336.677734" xlink:href="#DejaVuSans-83"/>
      </g>
     </g>
    </g>
    <g id="ytick_8">
     <g id="line2d_15">
      <g>
       <use style="stroke:#000000;stroke-width:0.8;" x="269.426563" xlink:href="#mbdb9b006c9" y="388.550649"/>
      </g>
     </g>
     <g id="text_15">
      <!-- 10-REDUCCION DESIGUALDADES -->
      <defs>
       <path d="M 59.515625 10.40625 
L 59.515625 29.984375 
L 43.40625 29.984375 
L 43.40625 38.09375 
L 69.28125 38.09375 
L 69.28125 6.78125 
Q 63.578125 2.734375 56.6875 0.65625 
Q 49.8125 -1.421875 42 -1.421875 
Q 24.90625 -1.421875 15.25 8.5625 
Q 5.609375 18.5625 5.609375 36.375 
Q 5.609375 54.25 15.25 64.234375 
Q 24.90625 74.21875 42 74.21875 
Q 49.125 74.21875 55.546875 72.453125 
Q 61.96875 70.703125 67.390625 67.28125 
L 67.390625 56.78125 
Q 61.921875 61.421875 55.765625 63.765625 
Q 49.609375 66.109375 42.828125 66.109375 
Q 29.4375 66.109375 22.71875 58.640625 
Q 16.015625 51.171875 16.015625 36.375 
Q 16.015625 21.625 22.71875 14.15625 
Q 29.4375 6.6875 42.828125 6.6875 
Q 48.046875 6.6875 52.140625 7.59375 
Q 56.25 8.5 59.515625 10.40625 
z
" id="DejaVuSans-71"/>
      </defs>
      <g transform="translate(96.83125 392.349868)scale(0.1 -0.1)">
       <use xlink:href="#DejaVuSans-49"/>
       <use x="63.623047" xlink:href="#DejaVuSans-48"/>
       <use x="127.246094" xlink:href="#DejaVuSans-45"/>
       <use x="163.330078" xlink:href="#DejaVuSans-82"/>
       <use x="232.8125" xlink:href="#DejaVuSans-69"/>
       <use x="295.996094" xlink:href="#DejaVuSans-68"/>
       <use x="372.998047" xlink:href="#DejaVuSans-85"/>
       <use x="446.191406" xlink:href="#DejaVuSans-67"/>
       <use x="516.015625" xlink:href="#DejaVuSans-67"/>
       <use x="585.839844" xlink:href="#DejaVuSans-73"/>
       <use x="615.332031" xlink:href="#DejaVuSans-79"/>
       <use x="694.042969" xlink:href="#DejaVuSans-78"/>
       <use x="768.847656" xlink:href="#DejaVuSans-32"/>
       <use x="800.634766" xlink:href="#DejaVuSans-68"/>
       <use x="877.636719" xlink:href="#DejaVuSans-69"/>
       <use x="940.820312" xlink:href="#DejaVuSans-83"/>
       <use x="1004.296875" xlink:href="#DejaVuSans-73"/>
       <use x="1033.789062" xlink:href="#DejaVuSans-71"/>
       <use x="1111.279297" xlink:href="#DejaVuSans-85"/>
       <use x="1184.472656" xlink:href="#DejaVuSans-65"/>
       <use x="1252.880859" xlink:href="#DejaVuSans-76"/>
       <use x="1308.59375" xlink:href="#DejaVuSans-68"/>
       <use x="1383.845703" xlink:href="#DejaVuSans-65"/>
       <use x="1452.253906" xlink:href="#DejaVuSans-68"/>
       <use x="1529.255859" xlink:href="#DejaVuSans-69"/>
       <use x="1592.439453" xlink:href="#DejaVuSans-83"/>
      </g>
     </g>
    </g>
    <g id="ytick_9">
     <g id="line2d_16">
      <g>
       <use style="stroke:#000000;stroke-width:0.8;" x="269.426563" xlink:href="#mbdb9b006c9" y="351.660937"/>
      </g>
     </g>
     <g id="text_16">
      <!-- 9-INDUSTRIA, INNOVACION -->
      <defs>
       <path d="M 10.984375 1.515625 
L 10.984375 10.5 
Q 14.703125 8.734375 18.5 7.8125 
Q 22.3125 6.890625 25.984375 6.890625 
Q 35.75 6.890625 40.890625 13.453125 
Q 46.046875 20.015625 46.78125 33.40625 
Q 43.953125 29.203125 39.59375 26.953125 
Q 35.25 24.703125 29.984375 24.703125 
Q 19.046875 24.703125 12.671875 31.3125 
Q 6.296875 37.9375 6.296875 49.421875 
Q 6.296875 60.640625 12.9375 67.421875 
Q 19.578125 74.21875 30.609375 74.21875 
Q 43.265625 74.21875 49.921875 64.515625 
Q 56.59375 54.828125 56.59375 36.375 
Q 56.59375 19.140625 48.40625 8.859375 
Q 40.234375 -1.421875 26.421875 -1.421875 
Q 22.703125 -1.421875 18.890625 -0.6875 
Q 15.09375 0.046875 10.984375 1.515625 
z
M 30.609375 32.421875 
Q 37.25 32.421875 41.125 36.953125 
Q 45.015625 41.5 45.015625 49.421875 
Q 45.015625 57.28125 41.125 61.84375 
Q 37.25 66.40625 30.609375 66.40625 
Q 23.96875 66.40625 20.09375 61.84375 
Q 16.21875 57.28125 16.21875 49.421875 
Q 16.21875 41.5 20.09375 36.953125 
Q 23.96875 32.421875 30.609375 32.421875 
z
" id="DejaVuSans-57"/>
      </defs>
      <g transform="translate(127.690625 355.460156)scale(0.1 -0.1)">
       <use xlink:href="#DejaVuSans-57"/>
       <use x="63.623047" xlink:href="#DejaVuSans-45"/>
       <use x="99.707031" xlink:href="#DejaVuSans-73"/>
       <use x="129.199219" xlink:href="#DejaVuSans-78"/>
       <use x="204.003906" xlink:href="#DejaVuSans-68"/>
       <use x="281.005859" xlink:href="#DejaVuSans-85"/>
       <use x="354.199219" xlink:href="#DejaVuSans-83"/>
       <use x="417.675781" xlink:href="#DejaVuSans-84"/>
       <use x="478.759766" xlink:href="#DejaVuSans-82"/>
       <use x="548.242188" xlink:href="#DejaVuSans-73"/>
       <use x="577.734375" xlink:href="#DejaVuSans-65"/>
       <use x="646.142578" xlink:href="#DejaVuSans-44"/>
       <use x="677.929688" xlink:href="#DejaVuSans-32"/>
       <use x="709.716797" xlink:href="#DejaVuSans-73"/>
       <use x="739.208984" xlink:href="#DejaVuSans-78"/>
       <use x="814.013672" xlink:href="#DejaVuSans-78"/>
       <use x="888.818359" xlink:href="#DejaVuSans-79"/>
       <use x="965.779297" xlink:href="#DejaVuSans-86"/>
       <use x="1027.8125" xlink:href="#DejaVuSans-65"/>
       <use x="1094.470703" xlink:href="#DejaVuSans-67"/>
       <use x="1164.294922" xlink:href="#DejaVuSans-73"/>
       <use x="1193.787109" xlink:href="#DejaVuSans-79"/>
       <use x="1272.498047" xlink:href="#DejaVuSans-78"/>
      </g>
     </g>
    </g>
    <g id="ytick_10">
     <g id="line2d_17">
      <g>
       <use style="stroke:#000000;stroke-width:0.8;" x="269.426563" xlink:href="#mbdb9b006c9" y="314.771226"/>
      </g>
     </g>
     <g id="text_17">
      <!-- 8-TRABAJO DECENTE Y CRECIMIENTO ECONÓMICO -->
      <g transform="translate(10.8 319.368882)scale(0.1 -0.1)">
       <use xlink:href="#DejaVuSans-56"/>
       <use x="63.623047" xlink:href="#DejaVuSans-45"/>
       <use x="90.582031" xlink:href="#DejaVuSans-84"/>
       <use x="151.666016" xlink:href="#DejaVuSans-82"/>
       <use x="217.148438" xlink:href="#DejaVuSans-65"/>
       <use x="285.556641" xlink:href="#DejaVuSans-66"/>
       <use x="354.160156" xlink:href="#DejaVuSans-65"/>
       <use x="422.568359" xlink:href="#DejaVuSans-74"/>
       <use x="452.060547" xlink:href="#DejaVuSans-79"/>
       <use x="530.771484" xlink:href="#DejaVuSans-32"/>
       <use x="562.558594" xlink:href="#DejaVuSans-68"/>
       <use x="639.560547" xlink:href="#DejaVuSans-69"/>
       <use x="702.744141" xlink:href="#DejaVuSans-67"/>
       <use x="772.568359" xlink:href="#DejaVuSans-69"/>
       <use x="835.751953" xlink:href="#DejaVuSans-78"/>
       <use x="910.556641" xlink:href="#DejaVuSans-84"/>
       <use x="971.640625" xlink:href="#DejaVuSans-69"/>
       <use x="1034.824219" xlink:href="#DejaVuSans-32"/>
       <use x="1066.611328" xlink:href="#DejaVuSans-89"/>
       <use x="1127.695312" xlink:href="#DejaVuSans-32"/>
       <use x="1159.482422" xlink:href="#DejaVuSans-67"/>
       <use x="1229.306641" xlink:href="#DejaVuSans-82"/>
       <use x="1298.789062" xlink:href="#DejaVuSans-69"/>
       <use x="1361.972656" xlink:href="#DejaVuSans-67"/>
       <use x="1431.796875" xlink:href="#DejaVuSans-73"/>
       <use x="1461.289062" xlink:href="#DejaVuSans-77"/>
       <use x="1547.568359" xlink:href="#DejaVuSans-73"/>
       <use x="1577.060547" xlink:href="#DejaVuSans-69"/>
       <use x="1640.244141" xlink:href="#DejaVuSans-78"/>
       <use x="1715.048828" xlink:href="#DejaVuSans-84"/>
       <use x="1776.132812" xlink:href="#DejaVuSans-79"/>
       <use x="1854.84375" xlink:href="#DejaVuSans-32"/>
       <use x="1886.630859" xlink:href="#DejaVuSans-69"/>
       <use x="1949.814453" xlink:href="#DejaVuSans-67"/>
       <use x="2019.638672" xlink:href="#DejaVuSans-79"/>
       <use x="2098.349609" xlink:href="#DejaVuSans-78"/>
       <use x="2173.154297" xlink:href="#DejaVuSans-211"/>
       <use x="2251.865234" xlink:href="#DejaVuSans-77"/>
       <use x="2338.144531" xlink:href="#DejaVuSans-73"/>
       <use x="2367.636719" xlink:href="#DejaVuSans-67"/>
       <use x="2437.460938" xlink:href="#DejaVuSans-79"/>
      </g>
     </g>
    </g>
    <g id="ytick_11">
     <g id="line2d_18">
      <g>
       <use style="stroke:#000000;stroke-width:0.8;" x="269.426563" xlink:href="#mbdb9b006c9" y="277.881514"/>
      </g>
     </g>
     <g id="text_18">
      <!-- 7-ENERGIA ASEQUIBLE Y NO CONTAMINANTE -->
      <defs>
       <path d="M 39.40625 66.21875 
Q 28.65625 66.21875 22.328125 58.203125 
Q 16.015625 50.203125 16.015625 36.375 
Q 16.015625 22.609375 22.328125 14.59375 
Q 28.65625 6.59375 39.40625 6.59375 
Q 50.140625 6.59375 56.421875 14.59375 
Q 62.703125 22.609375 62.703125 36.375 
Q 62.703125 50.203125 56.421875 58.203125 
Q 50.140625 66.21875 39.40625 66.21875 
z
M 53.21875 1.3125 
L 66.21875 -12.890625 
L 54.296875 -12.890625 
L 43.5 -1.21875 
Q 41.890625 -1.3125 41.03125 -1.359375 
Q 40.1875 -1.421875 39.40625 -1.421875 
Q 24.03125 -1.421875 14.8125 8.859375 
Q 5.609375 19.140625 5.609375 36.375 
Q 5.609375 53.65625 14.8125 63.9375 
Q 24.03125 74.21875 39.40625 74.21875 
Q 54.734375 74.21875 63.90625 63.9375 
Q 73.09375 53.65625 73.09375 36.375 
Q 73.09375 23.6875 67.984375 14.640625 
Q 62.890625 5.609375 53.21875 1.3125 
z
" id="DejaVuSans-81"/>
      </defs>
      <g transform="translate(36.959375 281.680733)scale(0.1 -0.1)">
       <use xlink:href="#DejaVuSans-55"/>
       <use x="63.623047" xlink:href="#DejaVuSans-45"/>
       <use x="99.707031" xlink:href="#DejaVuSans-69"/>
       <use x="162.890625" xlink:href="#DejaVuSans-78"/>
       <use x="237.695312" xlink:href="#DejaVuSans-69"/>
       <use x="300.878906" xlink:href="#DejaVuSans-82"/>
       <use x="370.361328" xlink:href="#DejaVuSans-71"/>
       <use x="447.851562" xlink:href="#DejaVuSans-73"/>
       <use x="477.34375" xlink:href="#DejaVuSans-65"/>
       <use x="545.751953" xlink:href="#DejaVuSans-32"/>
       <use x="577.539062" xlink:href="#DejaVuSans-65"/>
       <use x="645.947266" xlink:href="#DejaVuSans-83"/>
       <use x="709.423828" xlink:href="#DejaVuSans-69"/>
       <use x="772.607422" xlink:href="#DejaVuSans-81"/>
       <use x="851.318359" xlink:href="#DejaVuSans-85"/>
       <use x="924.511719" xlink:href="#DejaVuSans-73"/>
       <use x="954.003906" xlink:href="#DejaVuSans-66"/>
       <use x="1022.607422" xlink:href="#DejaVuSans-76"/>
       <use x="1078.320312" xlink:href="#DejaVuSans-69"/>
       <use x="1141.503906" xlink:href="#DejaVuSans-32"/>
       <use x="1173.291016" xlink:href="#DejaVuSans-89"/>
       <use x="1234.375" xlink:href="#DejaVuSans-32"/>
       <use x="1266.162109" xlink:href="#DejaVuSans-78"/>
       <use x="1340.966797" xlink:href="#DejaVuSans-79"/>
       <use x="1419.677734" xlink:href="#DejaVuSans-32"/>
       <use x="1451.464844" xlink:href="#DejaVuSans-67"/>
       <use x="1521.289062" xlink:href="#DejaVuSans-79"/>
       <use x="1600" xlink:href="#DejaVuSans-78"/>
       <use x="1674.804688" xlink:href="#DejaVuSans-84"/>
       <use x="1728.138672" xlink:href="#DejaVuSans-65"/>
       <use x="1796.546875" xlink:href="#DejaVuSans-77"/>
       <use x="1882.826172" xlink:href="#DejaVuSans-73"/>
       <use x="1912.318359" xlink:href="#DejaVuSans-78"/>
       <use x="1987.123047" xlink:href="#DejaVuSans-65"/>
       <use x="2055.53125" xlink:href="#DejaVuSans-78"/>
       <use x="2130.335938" xlink:href="#DejaVuSans-84"/>
       <use x="2191.419922" xlink:href="#DejaVuSans-69"/>
      </g>
     </g>
    </g>
    <g id="ytick_12">
     <g id="line2d_19">
      <g>
       <use style="stroke:#000000;stroke-width:0.8;" x="269.426563" xlink:href="#mbdb9b006c9" y="240.991802"/>
      </g>
     </g>
     <g id="text_19">
      <!-- 6-AGUA LIMPIA Y NO CONTAMINANTE -->
      <g transform="translate(76.646875 244.791021)scale(0.1 -0.1)">
       <use xlink:href="#DejaVuSans-54"/>
       <use x="63.623047" xlink:href="#DejaVuSans-45"/>
       <use x="97.457031" xlink:href="#DejaVuSans-65"/>
       <use x="164.115234" xlink:href="#DejaVuSans-71"/>
       <use x="241.605469" xlink:href="#DejaVuSans-85"/>
       <use x="314.798828" xlink:href="#DejaVuSans-65"/>
       <use x="383.207031" xlink:href="#DejaVuSans-32"/>
       <use x="414.994141" xlink:href="#DejaVuSans-76"/>
       <use x="470.707031" xlink:href="#DejaVuSans-73"/>
       <use x="500.199219" xlink:href="#DejaVuSans-77"/>
       <use x="586.478516" xlink:href="#DejaVuSans-80"/>
       <use x="646.78125" xlink:href="#DejaVuSans-73"/>
       <use x="676.273438" xlink:href="#DejaVuSans-65"/>
       <use x="744.681641" xlink:href="#DejaVuSans-32"/>
       <use x="776.46875" xlink:href="#DejaVuSans-89"/>
       <use x="837.552734" xlink:href="#DejaVuSans-32"/>
       <use x="869.339844" xlink:href="#DejaVuSans-78"/>
       <use x="944.144531" xlink:href="#DejaVuSans-79"/>
       <use x="1022.855469" xlink:href="#DejaVuSans-32"/>
       <use x="1054.642578" xlink:href="#DejaVuSans-67"/>
       <use x="1124.466797" xlink:href="#DejaVuSans-79"/>
       <use x="1203.177734" xlink:href="#DejaVuSans-78"/>
       <use x="1277.982422" xlink:href="#DejaVuSans-84"/>
       <use x="1331.316406" xlink:href="#DejaVuSans-65"/>
       <use x="1399.724609" xlink:href="#DejaVuSans-77"/>
       <use x="1486.003906" xlink:href="#DejaVuSans-73"/>
       <use x="1515.496094" xlink:href="#DejaVuSans-78"/>
       <use x="1590.300781" xlink:href="#DejaVuSans-65"/>
       <use x="1658.708984" xlink:href="#DejaVuSans-78"/>
       <use x="1733.513672" xlink:href="#DejaVuSans-84"/>
       <use x="1794.597656" xlink:href="#DejaVuSans-69"/>
      </g>
     </g>
    </g>
    <g id="ytick_13">
     <g id="line2d_20">
      <g>
       <use style="stroke:#000000;stroke-width:0.8;" x="269.426563" xlink:href="#mbdb9b006c9" y="204.10209"/>
      </g>
     </g>
     <g id="text_20">
      <!-- 5-IGUALDAD DE GÉNERO -->
      <defs>
       <path d="M 9.8125 72.90625 
L 55.90625 72.90625 
L 55.90625 64.59375 
L 19.671875 64.59375 
L 19.671875 43.015625 
L 54.390625 43.015625 
L 54.390625 34.71875 
L 19.671875 34.71875 
L 19.671875 8.296875 
L 56.78125 8.296875 
L 56.78125 0 
L 9.8125 0 
z
M 35.40625 92.734375 
L 44.4375 92.734375 
L 33.296875 79.84375 
L 25.828125 79.84375 
z
" id="DejaVuSans-201"/>
      </defs>
      <g transform="translate(136.898438 207.901309)scale(0.1 -0.1)">
       <use xlink:href="#DejaVuSans-53"/>
       <use x="63.623047" xlink:href="#DejaVuSans-45"/>
       <use x="99.707031" xlink:href="#DejaVuSans-73"/>
       <use x="129.199219" xlink:href="#DejaVuSans-71"/>
       <use x="206.689453" xlink:href="#DejaVuSans-85"/>
       <use x="279.882812" xlink:href="#DejaVuSans-65"/>
       <use x="348.291016" xlink:href="#DejaVuSans-76"/>
       <use x="404.003906" xlink:href="#DejaVuSans-68"/>
       <use x="479.255859" xlink:href="#DejaVuSans-65"/>
       <use x="547.664062" xlink:href="#DejaVuSans-68"/>
       <use x="624.666016" xlink:href="#DejaVuSans-32"/>
       <use x="656.453125" xlink:href="#DejaVuSans-68"/>
       <use x="733.455078" xlink:href="#DejaVuSans-69"/>
       <use x="796.638672" xlink:href="#DejaVuSans-32"/>
       <use x="828.425781" xlink:href="#DejaVuSans-71"/>
       <use x="905.916016" xlink:href="#DejaVuSans-201"/>
       <use x="969.099609" xlink:href="#DejaVuSans-78"/>
       <use x="1043.904297" xlink:href="#DejaVuSans-69"/>
       <use x="1107.087891" xlink:href="#DejaVuSans-82"/>
       <use x="1176.570312" xlink:href="#DejaVuSans-79"/>
      </g>
     </g>
    </g>
    <g id="ytick_14">
     <g id="line2d_21">
      <g>
       <use style="stroke:#000000;stroke-width:0.8;" x="269.426563" xlink:href="#mbdb9b006c9" y="167.212378"/>
      </g>
     </g>
     <g id="text_21">
      <!-- 4-EDUCACION DE CALIDAD -->
      <g transform="translate(127.398438 171.011597)scale(0.1 -0.1)">
       <use xlink:href="#DejaVuSans-52"/>
       <use x="63.623047" xlink:href="#DejaVuSans-45"/>
       <use x="99.707031" xlink:href="#DejaVuSans-69"/>
       <use x="162.890625" xlink:href="#DejaVuSans-68"/>
       <use x="239.892578" xlink:href="#DejaVuSans-85"/>
       <use x="313.085938" xlink:href="#DejaVuSans-67"/>
       <use x="382.910156" xlink:href="#DejaVuSans-65"/>
       <use x="449.568359" xlink:href="#DejaVuSans-67"/>
       <use x="519.392578" xlink:href="#DejaVuSans-73"/>
       <use x="548.884766" xlink:href="#DejaVuSans-79"/>
       <use x="627.595703" xlink:href="#DejaVuSans-78"/>
       <use x="702.400391" xlink:href="#DejaVuSans-32"/>
       <use x="734.1875" xlink:href="#DejaVuSans-68"/>
       <use x="811.189453" xlink:href="#DejaVuSans-69"/>
       <use x="874.373047" xlink:href="#DejaVuSans-32"/>
       <use x="906.160156" xlink:href="#DejaVuSans-67"/>
       <use x="975.984375" xlink:href="#DejaVuSans-65"/>
       <use x="1044.392578" xlink:href="#DejaVuSans-76"/>
       <use x="1100.105469" xlink:href="#DejaVuSans-73"/>
       <use x="1129.597656" xlink:href="#DejaVuSans-68"/>
       <use x="1204.849609" xlink:href="#DejaVuSans-65"/>
       <use x="1273.257812" xlink:href="#DejaVuSans-68"/>
      </g>
     </g>
    </g>
    <g id="ytick_15">
     <g id="line2d_22">
      <g>
       <use style="stroke:#000000;stroke-width:0.8;" x="269.426563" xlink:href="#mbdb9b006c9" y="130.322666"/>
      </g>
     </g>
     <g id="text_22">
      <!-- 3-SALUD Y BIENESTAR -->
      <g transform="translate(151.125 134.121885)scale(0.1 -0.1)">
       <use xlink:href="#DejaVuSans-51"/>
       <use x="63.623047" xlink:href="#DejaVuSans-45"/>
       <use x="99.707031" xlink:href="#DejaVuSans-83"/>
       <use x="165.058594" xlink:href="#DejaVuSans-65"/>
       <use x="233.466797" xlink:href="#DejaVuSans-76"/>
       <use x="284.179688" xlink:href="#DejaVuSans-85"/>
       <use x="357.373047" xlink:href="#DejaVuSans-68"/>
       <use x="434.375" xlink:href="#DejaVuSans-32"/>
       <use x="466.162109" xlink:href="#DejaVuSans-89"/>
       <use x="527.246094" xlink:href="#DejaVuSans-32"/>
       <use x="559.033203" xlink:href="#DejaVuSans-66"/>
       <use x="627.636719" xlink:href="#DejaVuSans-73"/>
       <use x="657.128906" xlink:href="#DejaVuSans-69"/>
       <use x="720.3125" xlink:href="#DejaVuSans-78"/>
       <use x="795.117188" xlink:href="#DejaVuSans-69"/>
       <use x="858.300781" xlink:href="#DejaVuSans-83"/>
       <use x="921.777344" xlink:href="#DejaVuSans-84"/>
       <use x="975.111328" xlink:href="#DejaVuSans-65"/>
       <use x="1043.519531" xlink:href="#DejaVuSans-82"/>
      </g>
     </g>
    </g>
    <g id="ytick_16">
     <g id="line2d_23">
      <g>
       <use style="stroke:#000000;stroke-width:0.8;" x="269.426563" xlink:href="#mbdb9b006c9" y="93.432955"/>
      </g>
     </g>
     <g id="text_23">
      <!-- 2-HAMBRE CERO -->
      <defs>
       <path d="M 9.8125 72.90625 
L 19.671875 72.90625 
L 19.671875 43.015625 
L 55.515625 43.015625 
L 55.515625 72.90625 
L 65.375 72.90625 
L 65.375 0 
L 55.515625 0 
L 55.515625 34.71875 
L 19.671875 34.71875 
L 19.671875 0 
L 9.8125 0 
z
" id="DejaVuSans-72"/>
      </defs>
      <g transform="translate(178.039063 97.232173)scale(0.1 -0.1)">
       <use xlink:href="#DejaVuSans-50"/>
       <use x="63.623047" xlink:href="#DejaVuSans-45"/>
       <use x="99.707031" xlink:href="#DejaVuSans-72"/>
       <use x="174.902344" xlink:href="#DejaVuSans-65"/>
       <use x="243.310547" xlink:href="#DejaVuSans-77"/>
       <use x="329.589844" xlink:href="#DejaVuSans-66"/>
       <use x="398.193359" xlink:href="#DejaVuSans-82"/>
       <use x="467.675781" xlink:href="#DejaVuSans-69"/>
       <use x="530.859375" xlink:href="#DejaVuSans-32"/>
       <use x="562.646484" xlink:href="#DejaVuSans-67"/>
       <use x="632.470703" xlink:href="#DejaVuSans-69"/>
       <use x="695.654297" xlink:href="#DejaVuSans-82"/>
       <use x="765.136719" xlink:href="#DejaVuSans-79"/>
      </g>
     </g>
    </g>
    <g id="ytick_17">
     <g id="line2d_24">
      <g>
       <use style="stroke:#000000;stroke-width:0.8;" x="269.426563" xlink:href="#mbdb9b006c9" y="56.543243"/>
      </g>
     </g>
     <g id="text_24">
      <!-- 1-FIN DE POBREZA -->
      <defs>
       <path d="M 9.8125 72.90625 
L 51.703125 72.90625 
L 51.703125 64.59375 
L 19.671875 64.59375 
L 19.671875 43.109375 
L 48.578125 43.109375 
L 48.578125 34.8125 
L 19.671875 34.8125 
L 19.671875 0 
L 9.8125 0 
z
" id="DejaVuSans-70"/>
      </defs>
      <g transform="translate(168.178125 60.342461)scale(0.1 -0.1)">
       <use xlink:href="#DejaVuSans-49"/>
       <use x="63.623047" xlink:href="#DejaVuSans-45"/>
       <use x="99.707031" xlink:href="#DejaVuSans-70"/>
       <use x="157.226562" xlink:href="#DejaVuSans-73"/>
       <use x="186.71875" xlink:href="#DejaVuSans-78"/>
       <use x="261.523438" xlink:href="#DejaVuSans-32"/>
       <use x="293.310547" xlink:href="#DejaVuSans-68"/>
       <use x="370.3125" xlink:href="#DejaVuSans-69"/>
       <use x="433.496094" xlink:href="#DejaVuSans-32"/>
       <use x="465.283203" xlink:href="#DejaVuSans-80"/>
       <use x="525.585938" xlink:href="#DejaVuSans-79"/>
       <use x="604.296875" xlink:href="#DejaVuSans-66"/>
       <use x="672.900391" xlink:href="#DejaVuSans-82"/>
       <use x="742.382812" xlink:href="#DejaVuSans-69"/>
       <use x="805.566406" xlink:href="#DejaVuSans-90"/>
       <use x="874.072266" xlink:href="#DejaVuSans-65"/>
      </g>
     </g>
    </g>
   </g>
   <g id="patch_20">
    <path d="M 269.426563 692.521875 
L 269.426563 10.8 
" style="fill:none;stroke:#000000;stroke-linecap:square;stroke-linejoin:miter;stroke-width:0.8;"/>
   </g>
   <g id="patch_21">
    <path d="M 1069.2 692.521875 
L 1069.2 10.8 
" style="fill:none;stroke:#000000;stroke-linecap:square;stroke-linejoin:miter;stroke-width:0.8;"/>
   </g>
   <g id="patch_22">
    <path d="M 269.426563 692.521875 
L 1069.2 692.521875 
" style="fill:none;stroke:#000000;stroke-linecap:square;stroke-linejoin:miter;stroke-width:0.8;"/>
   </g>
   <g id="patch_23">
    <path d="M 269.426563 10.8 
L 1069.2 10.8 
" style="fill:none;stroke:#000000;stroke-linecap:square;stroke-linejoin:miter;stroke-width:0.8;"/>
   </g>
  </g>
 </g>
 <defs>
  <clipPath id="p254bbe694c">
   <rect height="681.721875" width="799.773438" x="269.426563" y="10.8"/>
  </clipPath>
 </defs>
</svg>
